<svg width="900" height="300" viewBox="0 0 900 300" fill="none" xmlns="http://www.w3.org/2000/svg">
  <rect width="900" height="300" rx="42" fill="#05040A"/>
  <g filter="url(#glow)">
    <path d="M124 220L198 78H228L302 220H250L237 193H187L174 220H124ZM202 158H222L212 136L202 158Z" fill="url(#gold)"/>
    <path d="M322 220L385 148L327 78H386L418 119L451 78H510L451 148L516 220H454L418 176L383 220H322Z" fill="url(#cyan)"/>
    <path d="M545 220V78H599V220H545Z" fill="url(#purple)"/>
    <path d="M634 149C634 106 668 74 715 74C762 74 796 106 796 149C796 192 762 224 715 224C668 224 634 192 634 149ZM687 149C687 168 698 182 715 182C732 182 743 168 743 149C743 130 732 116 715 116C698 116 687 130 687 149Z" fill="url(#cyan)"/>
  </g>
  <path d="M105 248H795" stroke="url(#line)" stroke-width="3" stroke-linecap="round"/>
  <text x="450" y="265" text-anchor="middle" fill="#D8F7FF" font-family="Arial, sans-serif" font-size="20" letter-spacing="8">PREMIUM RESEARCH WELLNESS</text>
  <defs>
    <linearGradient id="gold" x1="124" y1="78" x2="310" y2="220" gradientUnits="userSpaceOnUse"><stop stop-color="#FFE8A3"/><stop offset="1" stop-color="#E2A728"/></linearGradient>
    <linearGradient id="cyan" x1="322" y1="78" x2="796" y2="220" gradientUnits="userSpaceOnUse"><stop stop-color="#35F2FF"/><stop offset="0.55" stop-color="#8F5CFF"/><stop offset="1" stop-color="#1E74FF"/></linearGradient>
    <linearGradient id="purple" x1="545" y1="78" x2="599" y2="220" gradientUnits="userSpaceOnUse"><stop stop-color="#F051FF"/><stop offset="1" stop-color="#7B3CFF"/></linearGradient>
    <linearGradient id="line" x1="105" y1="248" x2="795" y2="248" gradientUnits="userSpaceOnUse"><stop stop-color="#36F4FF"/><stop offset="0.5" stop-color="#B75CFF"/><stop offset="1" stop-color="#FFE27A"/></linearGradient>
    <filter id="glow" x="80" y="40" width="760" height="220" filterUnits="userSpaceOnUse" color-interpolation-filters="sRGB"><feGaussianBlur stdDeviation="4" result="blur"/><feColorMatrix in="blur" type="matrix" values="0 0 0 0 0.47 0 0 0 0 0.12 0 0 0 0 1 0 0 0 0.75 0"/><feBlend in="SourceGraphic"/></filter>
  </defs>
</svg>
